<svg width="11" height="14" viewBox="0 0 11 14" fill="none" xmlns="http://www.w3.org/2000/svg">
<path fill-rule="evenodd" clip-rule="evenodd" d="M3.43125 5.47469V4.33062C3.43125 3.2819 4.26523 2.42385 5.3375 2.42385C6.38594 2.42385 7.24375 3.2819 7.24375 4.33062V5.47469H3.43125ZM1.90625 4.33062V5.47469H1.525C0.667187 5.47469 0 6.16589 0 7.0001V11.5764C0 12.4344 0.667187 13.1018 1.525 13.1018H9.15C9.98398 13.1018 10.675 12.4344 10.675 11.5764V7.0001C10.675 6.16589 9.98398 5.47469 9.15 5.47469H8.76875V4.33062C8.76875 2.44769 7.21992 0.898438 5.3375 0.898438C3.43125 0.898438 1.90625 2.44769 1.90625 4.33062ZM6.31786 8.63448C6.31786 9.04065 6.04012 9.38193 5.66426 9.47869V10.5957C5.66426 10.7161 5.56672 10.8136 5.4464 10.8136C5.32608 10.8136 5.22854 10.7161 5.22854 10.5957V9.47868C4.8527 9.3819 4.575 9.04063 4.575 8.63448C4.575 8.15307 4.96515 7.76281 5.44643 7.76281C5.9277 7.76281 6.31786 8.15307 6.31786 8.63448Z" fill="white"/>
<path fill-rule="evenodd" clip-rule="evenodd" d="M3.43125 5.47469V4.33062C3.43125 3.2819 4.26523 2.42385 5.3375 2.42385C6.38594 2.42385 7.24375 3.2819 7.24375 4.33062V5.47469H3.43125ZM1.90625 4.33062V5.47469H1.525C0.667187 5.47469 0 6.16589 0 7.0001V11.5764C0 12.4344 0.667187 13.1018 1.525 13.1018H9.15C9.98398 13.1018 10.675 12.4344 10.675 11.5764V7.0001C10.675 6.16589 9.98398 5.47469 9.15 5.47469H8.76875V4.33062C8.76875 2.44769 7.21992 0.898438 5.3375 0.898438C3.43125 0.898438 1.90625 2.44769 1.90625 4.33062ZM6.31786 8.63448C6.31786 9.04065 6.04012 9.38193 5.66426 9.47869V10.5957C5.66426 10.7161 5.56672 10.8136 5.4464 10.8136C5.32608 10.8136 5.22854 10.7161 5.22854 10.5957V9.47868C4.8527 9.3819 4.575 9.04063 4.575 8.63448C4.575 8.15307 4.96515 7.76281 5.44643 7.76281C5.9277 7.76281 6.31786 8.15307 6.31786 8.63448Z" fill="#2B336A"/>
<path fill-rule="evenodd" clip-rule="evenodd" d="M3.43125 5.47469V4.33062C3.43125 3.2819 4.26523 2.42385 5.3375 2.42385C6.38594 2.42385 7.24375 3.2819 7.24375 4.33062V5.47469H3.43125ZM1.90625 4.33062V5.47469H1.525C0.667187 5.47469 0 6.16589 0 7.0001V11.5764C0 12.4344 0.667187 13.1018 1.525 13.1018H9.15C9.98398 13.1018 10.675 12.4344 10.675 11.5764V7.0001C10.675 6.16589 9.98398 5.47469 9.15 5.47469H8.76875V4.33062C8.76875 2.44769 7.21992 0.898438 5.3375 0.898438C3.43125 0.898438 1.90625 2.44769 1.90625 4.33062ZM6.31786 8.63448C6.31786 9.04065 6.04012 9.38193 5.66426 9.47869V10.5957C5.66426 10.7161 5.56672 10.8136 5.4464 10.8136C5.32608 10.8136 5.22854 10.7161 5.22854 10.5957V9.47868C4.8527 9.3819 4.575 9.04063 4.575 8.63448C4.575 8.15307 4.96515 7.76281 5.44643 7.76281C5.9277 7.76281 6.31786 8.15307 6.31786 8.63448Z" fill="white"/>
<path fill-rule="evenodd" clip-rule="evenodd" d="M3.43125 5.47469V4.33062C3.43125 3.2819 4.26523 2.42385 5.3375 2.42385C6.38594 2.42385 7.24375 3.2819 7.24375 4.33062V5.47469H3.43125ZM1.90625 4.33062V5.47469H1.525C0.667187 5.47469 0 6.16589 0 7.0001V11.5764C0 12.4344 0.667187 13.1018 1.525 13.1018H9.15C9.98398 13.1018 10.675 12.4344 10.675 11.5764V7.0001C10.675 6.16589 9.98398 5.47469 9.15 5.47469H8.76875V4.33062C8.76875 2.44769 7.21992 0.898438 5.3375 0.898438C3.43125 0.898438 1.90625 2.44769 1.90625 4.33062ZM6.31786 8.63448C6.31786 9.04065 6.04012 9.38193 5.66426 9.47869V10.5957C5.66426 10.7161 5.56672 10.8136 5.4464 10.8136C5.32608 10.8136 5.22854 10.7161 5.22854 10.5957V9.47868C4.8527 9.3819 4.575 9.04063 4.575 8.63448C4.575 8.15307 4.96515 7.76281 5.44643 7.76281C5.9277 7.76281 6.31786 8.15307 6.31786 8.63448Z" fill="#2B336A"/>
</svg>
