<svg width="14" height="14" viewBox="0 0 14 14" fill="none" xmlns="http://www.w3.org/2000/svg">
<path fill-rule="evenodd" clip-rule="evenodd" d="M8.32741 5.47469V4.33062C8.32741 3.2819 9.15541 2.42385 10.22 2.42385C11.2609 2.42385 12.1126 3.2819 12.1126 4.33062V5.47469C12.1126 5.90371 12.4438 6.23739 12.8696 6.23739C13.2718 6.23739 13.6267 5.90371 13.6267 5.47469V4.33062C13.6267 2.44769 12.0889 0.898438 10.22 0.898438C8.3274 0.898438 6.81333 2.44769 6.81333 4.33062V5.47469H1.51407C0.662407 5.47469 0 6.16589 0 7.0001V11.5764C0 12.4344 0.662407 13.1018 1.51407 13.1018H9.08444C9.91245 13.1018 10.5985 12.4344 10.5985 11.5764V7.0001C10.5985 6.16589 9.91245 5.47469 9.08444 5.47469H8.32741ZM6.27259 8.63448C6.27259 9.04065 5.99685 9.38193 5.62368 9.47869V10.5957C5.62368 10.7161 5.52684 10.8136 5.40738 10.8136C5.28792 10.8136 5.19108 10.7161 5.19108 10.5957V9.47868C4.81794 9.3819 4.54222 9.04063 4.54222 8.63448C4.54222 8.15307 4.92958 7.76281 5.40741 7.76281C5.88523 7.76281 6.27259 8.15307 6.27259 8.63448Z" fill="white"/>
<path fill-rule="evenodd" clip-rule="evenodd" d="M8.32741 5.47469V4.33062C8.32741 3.2819 9.15541 2.42385 10.22 2.42385C11.2609 2.42385 12.1126 3.2819 12.1126 4.33062V5.47469C12.1126 5.90371 12.4438 6.23739 12.8696 6.23739C13.2718 6.23739 13.6267 5.90371 13.6267 5.47469V4.33062C13.6267 2.44769 12.0889 0.898438 10.22 0.898438C8.3274 0.898438 6.81333 2.44769 6.81333 4.33062V5.47469H1.51407C0.662407 5.47469 0 6.16589 0 7.0001V11.5764C0 12.4344 0.662407 13.1018 1.51407 13.1018H9.08444C9.91245 13.1018 10.5985 12.4344 10.5985 11.5764V7.0001C10.5985 6.16589 9.91245 5.47469 9.08444 5.47469H8.32741ZM6.27259 8.63448C6.27259 9.04065 5.99685 9.38193 5.62368 9.47869V10.5957C5.62368 10.7161 5.52684 10.8136 5.40738 10.8136C5.28792 10.8136 5.19108 10.7161 5.19108 10.5957V9.47868C4.81794 9.3819 4.54222 9.04063 4.54222 8.63448C4.54222 8.15307 4.92958 7.76281 5.40741 7.76281C5.88523 7.76281 6.27259 8.15307 6.27259 8.63448Z" fill="#2B336A"/>
<path fill-rule="evenodd" clip-rule="evenodd" d="M8.32741 5.47469V4.33062C8.32741 3.2819 9.15541 2.42385 10.22 2.42385C11.2609 2.42385 12.1126 3.2819 12.1126 4.33062V5.47469C12.1126 5.90371 12.4438 6.23739 12.8696 6.23739C13.2718 6.23739 13.6267 5.90371 13.6267 5.47469V4.33062C13.6267 2.44769 12.0889 0.898438 10.22 0.898438C8.3274 0.898438 6.81333 2.44769 6.81333 4.33062V5.47469H1.51407C0.662407 5.47469 0 6.16589 0 7.0001V11.5764C0 12.4344 0.662407 13.1018 1.51407 13.1018H9.08444C9.91245 13.1018 10.5985 12.4344 10.5985 11.5764V7.0001C10.5985 6.16589 9.91245 5.47469 9.08444 5.47469H8.32741ZM6.27259 8.63448C6.27259 9.04065 5.99685 9.38193 5.62368 9.47869V10.5957C5.62368 10.7161 5.52684 10.8136 5.40738 10.8136C5.28792 10.8136 5.19108 10.7161 5.19108 10.5957V9.47868C4.81794 9.3819 4.54222 9.04063 4.54222 8.63448C4.54222 8.15307 4.92958 7.76281 5.40741 7.76281C5.88523 7.76281 6.27259 8.15307 6.27259 8.63448Z" fill="white"/>
<path fill-rule="evenodd" clip-rule="evenodd" d="M8.32741 5.47469V4.33062C8.32741 3.2819 9.15541 2.42385 10.22 2.42385C11.2609 2.42385 12.1126 3.2819 12.1126 4.33062V5.47469C12.1126 5.90371 12.4438 6.23739 12.8696 6.23739C13.2718 6.23739 13.6267 5.90371 13.6267 5.47469V4.33062C13.6267 2.44769 12.0889 0.898438 10.22 0.898438C8.3274 0.898438 6.81333 2.44769 6.81333 4.33062V5.47469H1.51407C0.662407 5.47469 0 6.16589 0 7.0001V11.5764C0 12.4344 0.662407 13.1018 1.51407 13.1018H9.08444C9.91245 13.1018 10.5985 12.4344 10.5985 11.5764V7.0001C10.5985 6.16589 9.91245 5.47469 9.08444 5.47469H8.32741ZM6.27259 8.63448C6.27259 9.04065 5.99685 9.38193 5.62368 9.47869V10.5957C5.62368 10.7161 5.52684 10.8136 5.40738 10.8136C5.28792 10.8136 5.19108 10.7161 5.19108 10.5957V9.47868C4.81794 9.3819 4.54222 9.04063 4.54222 8.63448C4.54222 8.15307 4.92958 7.76281 5.40741 7.76281C5.88523 7.76281 6.27259 8.15307 6.27259 8.63448Z" fill="#2B336A"/>
</svg>
