<svg width="20" height="20" viewBox="0 0 20 20" fill="none" xmlns="http://www.w3.org/2000/svg">
<path d="M2.56042 10.3234C2.91584 10.3241 3.26736 10.2508 3.59167 10.1085C3.61288 10.0987 3.63597 10.0936 3.6594 10.0933C3.68283 10.093 3.70605 10.0976 3.7275 10.1069C4.08583 10.2582 4.485 10.3369 4.88208 10.3328C4.94208 10.332 4.97708 10.2671 4.94833 10.2158C4.78679 9.92653 4.66983 9.61551 4.60125 9.29279C4.59313 9.25283 4.59931 9.21136 4.61875 9.17533C4.74792 8.92899 4.82125 8.65492 4.82125 8.36494C4.82125 7.28496 3.80875 6.40768 2.56042 6.40768C1.31208 6.40768 0.30125 7.28455 0.30125 8.36494C0.30125 8.48199 0.3125 8.59741 0.33625 8.70794C0.522917 9.6256 1.4475 10.3234 2.56042 10.3234ZM19.5833 19.1843H19.1L19.475 13.0307C19.4837 12.8878 19.4625 12.7446 19.4127 12.6099C19.3628 12.4753 19.2854 12.352 19.1851 12.2478C19.0848 12.1435 18.9638 12.0604 18.8295 12.0036C18.6952 11.9467 18.5505 11.9174 18.4042 11.9173H4.2625C3.64583 11.9173 3.15417 12.4271 3.19167 13.0307L3.56667 19.1843H0.416667C0.30616 19.1843 0.200179 19.2273 0.122039 19.3038C0.0438987 19.3802 0 19.484 0 19.5922C0 19.7003 0.0438987 19.8041 0.122039 19.8805C0.200179 19.957 0.30616 20 0.416667 20H19.5833C19.6938 20 19.7998 19.957 19.878 19.8805C19.9561 19.8041 20 19.7003 20 19.5922C20 19.484 19.9561 19.3802 19.878 19.3038C19.7998 19.2273 19.6938 19.1843 19.5833 19.1843ZM11.3333 14.4337C11.6986 14.4337 12.0488 14.5757 12.3071 14.8285C12.5653 15.0813 12.7104 15.4241 12.7104 15.7816C12.7104 16.1391 12.5653 16.482 12.3071 16.7348C12.0488 16.9876 11.6986 17.1296 11.3333 17.1296C10.9681 17.1296 10.6178 16.9876 10.3596 16.7348C10.1013 16.482 9.95625 16.1391 9.95625 15.7816C9.95625 15.4241 10.1013 15.0813 10.3596 14.8285C10.6178 14.5757 10.9681 14.4337 11.3333 14.4337ZM5.34167 11.1016H17.325C17.0752 10.6796 16.7168 10.3291 16.2854 10.0851C15.8541 9.84108 15.3649 9.71203 14.8667 9.71084H13.425C14.15 9.11538 14.7125 8.27114 15.0458 7.42689H16.225C16.7625 7.42689 17.2 6.99865 17.2 6.47253V5.59974C17.2 5.27754 17.0333 4.99205 16.7833 4.82075C16.5208 2.10041 14.1708 0 11.3333 0C8.49583 0 6.15 2.10041 5.88333 4.82075C5.63333 4.99205 5.46667 5.27754 5.46667 5.59974V6.47253C5.46667 6.99865 5.90417 7.42689 6.44167 7.42689H7.62083C7.95417 8.27114 8.51667 9.11538 9.24167 9.71084H7.8C6.78333 9.71084 5.84583 10.2492 5.34167 11.1016ZM7.47083 3.98466V3.98874C7.39583 4.19675 7.34167 4.42106 7.3 4.64538H6.7375C7.07917 2.46747 9.01667 0.815694 11.3333 0.815694C13.65 0.815694 15.5875 2.46747 15.9292 4.64538H15.375C15.0083 2.67955 13.3333 1.23985 11.3333 1.23985C9.56667 1.23985 8.05417 2.36959 7.47083 3.98466ZM9.12083 8.41388C9.40417 8.47914 9.74167 8.53216 10.1333 8.56479C10.3042 8.9971 10.7417 9.30299 11.2583 9.30299C11.925 9.30299 12.4625 8.79726 12.4625 8.17325C12.4625 7.55333 11.925 7.04759 11.2583 7.04759C10.7583 7.04759 10.3333 7.33309 10.15 7.74094C9.2375 7.66344 8.7 7.45544 8.49167 7.35756C8.425 7.20258 8.3625 7.0476 8.30833 6.89261C8.1375 6.39096 8.05 5.90562 8.05 5.44476C8.04844 5.10516 8.09757 4.76715 8.19583 4.44145C8.525 4.34357 9.34583 4.18043 10.3875 4.62091C10.6667 4.73918 10.9542 4.78812 11.2458 4.78812C12.3792 4.78812 13.525 4.03768 14.0917 3.60129C14.3758 4.05561 14.5497 4.56767 14.6 5.09809C14.6125 5.21228 14.6167 5.32648 14.6167 5.44476C14.6167 5.90562 14.5292 6.39096 14.3583 6.89261C13.8958 8.25074 12.7542 9.71084 11.3333 9.71084C10.4583 9.71084 9.6875 9.15616 9.12083 8.41388Z" fill="white"/>
</svg>
