<svg width="20" height="20" viewBox="0 0 20 20" fill="none" xmlns="http://www.w3.org/2000/svg">
<path d="M18.5417 0H1.45833C0.654167 0 0 0.654167 0 1.45833V3.54167C0 4.34583 0.654167 5 1.45833 5H18.5417C19.3458 5 20 4.34583 20 3.54167V1.45833C20 0.654167 19.3458 0 18.5417 0ZM1.45833 20H7.70833C8.5125 20 9.16667 19.3458 9.16667 18.5417V8.125C9.16667 7.32083 8.5125 6.66667 7.70833 6.66667H1.45833C0.654167 6.66667 0 7.32083 0 8.125V18.5417C0 19.3458 0.654167 20 1.45833 20ZM18.5417 6.66667H12.2917C11.4875 6.66667 10.8333 7.32083 10.8333 8.125V11.0417C10.8333 11.8458 11.4875 12.5 12.2917 12.5H18.5417C19.3458 12.5 20 11.8458 20 11.0417V8.125C20 7.32083 19.3458 6.66667 18.5417 6.66667ZM18.5417 14.1667H12.2917C11.4875 14.1667 10.8333 14.8208 10.8333 15.625V18.5417C10.8333 19.3458 11.4875 20 12.2917 20H18.5417C19.3458 20 20 19.3458 20 18.5417V15.625C20 14.8208 19.3458 14.1667 18.5417 14.1667Z" fill="white"/>
<path d="M18.5417 0H1.45833C0.654167 0 0 0.654167 0 1.45833V3.54167C0 4.34583 0.654167 5 1.45833 5H18.5417C19.3458 5 20 4.34583 20 3.54167V1.45833C20 0.654167 19.3458 0 18.5417 0ZM1.45833 20H7.70833C8.5125 20 9.16667 19.3458 9.16667 18.5417V8.125C9.16667 7.32083 8.5125 6.66667 7.70833 6.66667H1.45833C0.654167 6.66667 0 7.32083 0 8.125V18.5417C0 19.3458 0.654167 20 1.45833 20ZM18.5417 6.66667H12.2917C11.4875 6.66667 10.8333 7.32083 10.8333 8.125V11.0417C10.8333 11.8458 11.4875 12.5 12.2917 12.5H18.5417C19.3458 12.5 20 11.8458 20 11.0417V8.125C20 7.32083 19.3458 6.66667 18.5417 6.66667ZM18.5417 14.1667H12.2917C11.4875 14.1667 10.8333 14.8208 10.8333 15.625V18.5417C10.8333 19.3458 11.4875 20 12.2917 20H18.5417C19.3458 20 20 19.3458 20 18.5417V15.625C20 14.8208 19.3458 14.1667 18.5417 14.1667Z" fill="#2B336A"/>
</svg>
