<svg width="31" height="24" viewBox="0 0 31 24" fill="none" xmlns="http://www.w3.org/2000/svg">
<path opacity="0.5" d="M25.1869 9.08601C24.7959 4.11026 20.6223 0.181018 15.5484 0.181018C13.4601 0.17104 11.4255 0.84234 9.75301 2.09314C8.08054 3.34394 6.86145 5.10603 6.28056 7.11225C4.59612 7.69844 3.13565 8.79404 2.10145 10.2473C1.06726 11.7005 0.510543 13.4395 0.508423 15.2232C0.508423 19.9626 4.36404 23.8188 9.10271 23.8188H23.0684C27.2152 23.8188 30.5884 20.445 30.5884 16.2977C30.5926 14.6722 30.0679 13.0894 29.0935 11.7884C28.119 10.4875 26.7478 9.53891 25.1869 9.08601ZM20.6051 14.9084L16.3079 19.2062C16.2084 19.3063 16.0901 19.3858 15.9597 19.44C15.8294 19.4942 15.6896 19.5221 15.5484 19.5221C15.4073 19.5221 15.2675 19.4942 15.1371 19.44C15.0068 19.3858 14.8884 19.3063 14.7889 19.2062L10.4918 14.9084C10.3416 14.7582 10.2393 14.5667 10.1979 14.3583C10.1564 14.1499 10.1777 13.9339 10.259 13.7376C10.3403 13.5413 10.4779 13.3736 10.6546 13.2555C10.8312 13.1374 11.0388 13.0744 11.2513 13.0743H13.3999V8.77657C13.3999 8.20665 13.6262 7.66007 14.0292 7.25708C14.4321 6.85408 14.9786 6.62768 15.5484 6.62768C16.1183 6.62768 16.6648 6.85408 17.0677 7.25708C17.4706 7.66007 17.697 8.20665 17.697 8.77657V13.0743H19.8456C20.0576 13.0754 20.2645 13.139 20.4405 13.2573C20.6164 13.3755 20.7536 13.5431 20.8347 13.739C20.9158 13.9348 20.9373 14.1503 20.8965 14.3584C20.8556 14.5664 20.7542 14.7578 20.6051 14.9084Z" fill="#2B336A"/>
</svg>
