<svg width="38" height="50" viewBox="0 0 38 50" fill="none" xmlns="http://www.w3.org/2000/svg">
<path fill-rule="evenodd" clip-rule="evenodd" d="M6.50922 0H23.2259L37.3938 14.7676V43.4908C37.3938 47.089 34.4827 50 30.897 50H6.50922C2.91103 50 1.02824e-09 47.089 1.02824e-09 43.4908V6.50922C-6.31738e-05 2.91103 2.91097 0 6.50922 0Z" fill="#E5252A"/>
<path opacity="0.302" fill-rule="evenodd" clip-rule="evenodd" d="M23.2139 0.00134277V14.6565H37.3943L23.2139 0.00134277Z" fill="white"/>
<path d="M7.23462 37.3075V28.1746H11.1202C12.0822 28.1746 12.8444 28.4369 13.4191 28.9742C13.9938 29.4989 14.2811 30.2111 14.2811 31.0981C14.2811 31.9851 13.9938 32.6973 13.4191 33.222C12.8444 33.7593 12.0822 34.0216 11.1202 34.0216H9.57095V37.3075H7.23462ZM9.57095 32.0352H10.8578C11.2076 32.0352 11.4825 31.9602 11.6699 31.7853C11.8573 31.6229 11.9573 31.398 11.9573 31.0982C11.9573 30.7983 11.8574 30.5734 11.6699 30.411C11.4826 30.2361 11.2077 30.1612 10.8578 30.1612H9.57095V32.0352ZM15.2431 37.3075V28.1746H18.479C19.1162 28.1746 19.7159 28.262 20.2781 28.4494C20.8403 28.6368 21.3526 28.8992 21.8023 29.2615C22.2521 29.6113 22.6144 30.0861 22.8768 30.6858C23.1266 31.2855 23.2641 31.9727 23.2641 32.7473C23.2641 33.5094 23.1267 34.1966 22.8768 34.7962C22.6144 35.3959 22.2521 35.8707 21.8023 36.2205C21.3525 36.5828 20.8403 36.8452 20.2781 37.0326C19.7159 37.22 19.1162 37.3075 18.479 37.3075H15.2431ZM17.5295 35.321H18.2041C18.5664 35.321 18.9038 35.2836 19.2161 35.1961C19.5159 35.1086 19.8033 34.9712 20.0782 34.7838C20.3406 34.5964 20.553 34.334 20.7029 33.9842C20.8528 33.6344 20.9278 33.222 20.9278 32.7473C20.9278 32.26 20.8528 31.8477 20.7029 31.4979C20.553 31.1481 20.3406 30.8858 20.0782 30.6983C19.8033 30.511 19.516 30.3735 19.2161 30.2861C18.9038 30.1986 18.5664 30.1611 18.2041 30.1611H17.5295V35.321ZM24.4385 37.3075V28.1746H30.9353V30.1611H26.7749V31.6228H30.0982V33.5969H26.7749V37.3075H24.4385Z" fill="white"/>
</svg>
