<svg width="12" height="14" viewBox="0 0 12 14" fill="none" xmlns="http://www.w3.org/2000/svg">
<path d="M6.62891 13.6919C6.30078 14.1027 5.67188 14.1027 5.34375 13.6919C3.94922 11.912 0.75 7.66748 0.75 5.2577C0.75 2.35501 3.10156 0 6 0C8.89844 0 11.25 2.35501 11.25 5.2577C11.25 7.66748 8.05078 11.912 6.62891 13.6919ZM6 3.50513C5.37109 3.50513 4.79688 3.86112 4.46875 4.38142C4.16797 4.9291 4.16797 5.61369 4.46875 6.13399C4.79688 6.68166 5.37109 7.01027 6 7.01027C6.60156 7.01027 7.17578 6.68166 7.50391 6.13399C7.80469 5.61369 7.80469 4.9291 7.50391 4.38142C7.17578 3.86112 6.60156 3.50513 6 3.50513Z" fill="white"/>
<path d="M6.62891 13.6919C6.30078 14.1027 5.67188 14.1027 5.34375 13.6919C3.94922 11.912 0.75 7.66748 0.75 5.2577C0.75 2.35501 3.10156 0 6 0C8.89844 0 11.25 2.35501 11.25 5.2577C11.25 7.66748 8.05078 11.912 6.62891 13.6919ZM6 3.50513C5.37109 3.50513 4.79688 3.86112 4.46875 4.38142C4.16797 4.9291 4.16797 5.61369 4.46875 6.13399C4.79688 6.68166 5.37109 7.01027 6 7.01027C6.60156 7.01027 7.17578 6.68166 7.50391 6.13399C7.80469 5.61369 7.80469 4.9291 7.50391 4.38142C7.17578 3.86112 6.60156 3.50513 6 3.50513Z" fill="#2B336A"/>
</svg>
