<svg width="14" height="14" viewBox="0 0 14 14" fill="none" xmlns="http://www.w3.org/2000/svg">
<g clip-path="url(#clip0_203_5632)">
<path fill-rule="evenodd" clip-rule="evenodd" d="M10.0485 8.80949L7.49351 10.2865C7.49351 10.2865 8.75001 11.2 8.13401 12.3375L9.8 11.3785V13.65C9.8 13.7428 9.83688 13.8318 9.90252 13.8975C9.96815 13.9631 10.0572 14 10.15 14H13.65C13.7428 14 13.8319 13.9631 13.8975 13.8975C13.9631 13.8318 14 13.7428 14 13.65V9.79999C13.9999 9.33196 13.8435 8.87737 13.5555 8.5084C13.2675 8.13944 12.8646 7.87724 12.4106 7.76344C11.9566 7.64964 11.4776 7.69077 11.0497 7.88028C10.6217 8.0698 10.2694 8.39684 10.0485 8.80949ZM4.20001 11.3225L6.21951 12.488C6.33899 12.557 6.47091 12.6018 6.60771 12.6198C6.74452 12.6378 6.88353 12.6287 7.01681 12.5929C7.15008 12.5572 7.275 12.4955 7.38442 12.4114C7.49384 12.3274 7.58562 12.2225 7.65451 12.103C7.7928 11.862 7.82992 11.576 7.75776 11.3077C7.6856 11.0394 7.51003 10.8106 7.26951 10.6715C7.26951 10.6715 3.95851 8.74999 3.92351 8.74999C3.69346 8.34722 3.33653 8.03194 2.90844 7.85337C2.48035 7.67481 2.00518 7.643 1.5571 7.76291C1.10903 7.88282 0.713264 8.14771 0.43158 8.51623C0.149896 8.88474 -0.00185366 9.33615 1.70916e-05 9.79999V13.65C1.70916e-05 13.7428 0.036892 13.8318 0.10253 13.8975C0.168167 13.9631 0.257191 14 0.350017 14H3.85001C3.94284 14 4.03186 13.9631 4.0975 13.8975C4.16314 13.8318 4.20001 13.7428 4.20001 13.65V11.3225ZM6.19851 8.85149L5.49851 8.15149C5.4326 8.08558 5.34322 8.04856 5.25001 8.04856C5.1568 8.04856 5.06742 8.08558 5.00151 8.15149C4.93561 8.2174 4.89858 8.30678 4.89858 8.39999C4.89858 8.49319 4.93561 8.58258 5.00151 8.64849L5.70151 9.34849C5.76742 9.41439 5.8568 9.45142 5.95001 9.45142C6.04322 9.45142 6.1326 9.41439 6.19851 9.34849C6.26442 9.28258 6.30144 9.19319 6.30144 9.09999C6.30144 9.00678 6.26442 8.91739 6.19851 8.85149ZM8.29851 9.34849L8.99851 8.64849C9.06441 8.58258 9.10144 8.49319 9.10144 8.39999C9.10144 8.30678 9.06441 8.2174 8.99851 8.15149C8.9326 8.08558 8.84321 8.04856 8.75001 8.04856C8.6568 8.04856 8.56741 8.08558 8.50151 8.15149L7.80151 8.85149C7.7356 8.91739 7.69858 9.00678 7.69858 9.09999C7.69858 9.19319 7.7356 9.28258 7.80151 9.34849C7.86741 9.41439 7.9568 9.45142 8.05001 9.45142C8.14321 9.45142 8.2326 9.41439 8.29851 9.34849ZM6.65001 7.69999V8.74999C6.65001 8.84282 6.68688 8.93184 6.75252 8.99748C6.81816 9.06311 6.90718 9.09999 7.00001 9.09999C7.09283 9.09999 7.18186 9.06311 7.2475 8.99748C7.31313 8.93184 7.35001 8.84282 7.35001 8.74999V7.69999C7.35001 7.60716 7.31313 7.51814 7.2475 7.4525C7.18186 7.38687 7.09283 7.34999 7.00001 7.34999C6.90718 7.34999 6.81816 7.38687 6.75252 7.4525C6.68688 7.51814 6.65001 7.60716 6.65001 7.69999ZM2.10001 3.85C1.7539 3.85 1.41555 3.95263 1.12777 4.14492C0.839982 4.33721 0.615681 4.61053 0.483227 4.9303C0.350774 5.25007 0.316118 5.60193 0.383642 5.9414C0.451166 6.28087 0.617838 6.59269 0.862579 6.83743C1.10732 7.08217 1.41914 7.24884 1.75861 7.31636C2.09807 7.38389 2.44994 7.34923 2.76971 7.21678C3.08948 7.08433 3.36279 6.86003 3.55508 6.57224C3.74738 6.28445 3.85001 5.94611 3.85001 5.59999C3.85001 5.13586 3.66564 4.69075 3.33745 4.36256C3.00926 4.03437 2.56414 3.85 2.10001 3.85ZM11.9 3.85C11.5539 3.85 11.2155 3.95263 10.9278 4.14492C10.64 4.33721 10.4157 4.61053 10.2832 4.9303C10.1508 5.25007 10.1161 5.60193 10.1836 5.9414C10.2512 6.28087 10.4178 6.59269 10.6626 6.83743C10.9073 7.08217 11.2191 7.24884 11.5586 7.31636C11.8981 7.38389 12.2499 7.34923 12.5697 7.21678C12.8895 7.08433 13.1628 6.86003 13.3551 6.57224C13.5474 6.28445 13.65 5.94611 13.65 5.59999C13.65 5.13586 13.4656 4.69075 13.1374 4.36256C12.8092 4.03437 12.3641 3.85 11.9 3.85ZM7.00001 0C6.377 0 5.76798 0.184744 5.24996 0.53087C4.73195 0.876996 4.32821 1.36896 4.08979 1.94454C3.85138 2.52013 3.789 3.15349 3.91054 3.76453C4.03208 4.37557 4.33209 4.93684 4.77262 5.37738C5.21316 5.81791 5.77444 6.11792 6.38547 6.23947C6.99651 6.36101 7.62987 6.29863 8.20546 6.06021C8.78105 5.8218 9.27301 5.41805 9.61913 4.90004C9.96526 4.38203 10.15 3.77301 10.15 3.15C10.15 2.31456 9.81813 1.51335 9.22739 0.922612C8.63665 0.331874 7.83544 0 7.00001 0ZM6.65001 1.7675C6.45237 1.80784 6.27474 1.91523 6.14718 2.07149C6.01962 2.22775 5.94997 2.42328 5.95001 2.625C5.95001 2.85706 6.0422 3.07962 6.20629 3.24371C6.37039 3.40781 6.59294 3.5 6.82501 3.5H7.17501C7.22142 3.5 7.26593 3.51843 7.29875 3.55125C7.33157 3.58407 7.35001 3.62858 7.35001 3.675C7.35001 3.72141 7.33157 3.76592 7.29875 3.79874C7.26593 3.83156 7.22142 3.85 7.17501 3.85H6.30001C6.20718 3.85 6.11816 3.88687 6.05252 3.95251C5.98688 4.01815 5.95001 4.10717 5.95001 4.19999C5.95001 4.29282 5.98688 4.38184 6.05252 4.44748C6.11816 4.51312 6.20718 4.54999 6.30001 4.54999H6.65001V4.89999C6.65001 4.99282 6.68688 5.08184 6.75252 5.14748C6.81816 5.21312 6.90718 5.24999 7.00001 5.24999C7.09283 5.24999 7.18186 5.21312 7.2475 5.14748C7.31313 5.08184 7.35001 4.99282 7.35001 4.89999V4.54999C7.58207 4.52679 7.79541 4.41234 7.9431 4.23184C8.09078 4.05134 8.16071 3.81956 8.13751 3.5875C8.1143 3.35543 7.99986 3.14209 7.81935 2.99441C7.63885 2.84672 7.40707 2.77679 7.17501 2.8H6.82501C6.7786 2.8 6.73408 2.78156 6.70126 2.74874C6.66845 2.71592 6.65001 2.67141 6.65001 2.625C6.65001 2.57858 6.66845 2.53407 6.70126 2.50125C6.73408 2.46843 6.7786 2.45 6.82501 2.45H7.70001C7.79283 2.45 7.88186 2.41312 7.94749 2.34748C8.01313 2.28185 8.05001 2.19282 8.05001 2.1C8.05001 2.00717 8.01313 1.91815 7.94749 1.85251C7.88186 1.78687 7.79283 1.75 7.70001 1.75H7.35001V1.4C7.35001 1.30717 7.31313 1.21815 7.2475 1.15251C7.18186 1.08687 7.09283 1.05 7.00001 1.05C6.90718 1.05 6.81816 1.08687 6.75252 1.15251C6.68688 1.21815 6.65001 1.30717 6.65001 1.4V1.7675Z" fill="white"/>
<path fill-rule="evenodd" clip-rule="evenodd" d="M10.0485 8.80949L7.49351 10.2865C7.49351 10.2865 8.75001 11.2 8.13401 12.3375L9.8 11.3785V13.65C9.8 13.7428 9.83688 13.8318 9.90252 13.8975C9.96815 13.9631 10.0572 14 10.15 14H13.65C13.7428 14 13.8319 13.9631 13.8975 13.8975C13.9631 13.8318 14 13.7428 14 13.65V9.79999C13.9999 9.33196 13.8435 8.87737 13.5555 8.5084C13.2675 8.13944 12.8646 7.87724 12.4106 7.76344C11.9566 7.64964 11.4776 7.69077 11.0497 7.88028C10.6217 8.0698 10.2694 8.39684 10.0485 8.80949ZM4.20001 11.3225L6.21951 12.488C6.33899 12.557 6.47091 12.6018 6.60771 12.6198C6.74452 12.6378 6.88353 12.6287 7.01681 12.5929C7.15008 12.5572 7.275 12.4955 7.38442 12.4114C7.49384 12.3274 7.58562 12.2225 7.65451 12.103C7.7928 11.862 7.82992 11.576 7.75776 11.3077C7.6856 11.0394 7.51003 10.8106 7.26951 10.6715C7.26951 10.6715 3.95851 8.74999 3.92351 8.74999C3.69346 8.34722 3.33653 8.03194 2.90844 7.85337C2.48035 7.67481 2.00518 7.643 1.5571 7.76291C1.10903 7.88282 0.713264 8.14771 0.43158 8.51623C0.149896 8.88474 -0.00185366 9.33615 1.70916e-05 9.79999V13.65C1.70916e-05 13.7428 0.036892 13.8318 0.10253 13.8975C0.168167 13.9631 0.257191 14 0.350017 14H3.85001C3.94284 14 4.03186 13.9631 4.0975 13.8975C4.16314 13.8318 4.20001 13.7428 4.20001 13.65V11.3225ZM6.19851 8.85149L5.49851 8.15149C5.4326 8.08558 5.34322 8.04856 5.25001 8.04856C5.1568 8.04856 5.06742 8.08558 5.00151 8.15149C4.93561 8.2174 4.89858 8.30678 4.89858 8.39999C4.89858 8.49319 4.93561 8.58258 5.00151 8.64849L5.70151 9.34849C5.76742 9.41439 5.8568 9.45142 5.95001 9.45142C6.04322 9.45142 6.1326 9.41439 6.19851 9.34849C6.26442 9.28258 6.30144 9.19319 6.30144 9.09999C6.30144 9.00678 6.26442 8.91739 6.19851 8.85149ZM8.29851 9.34849L8.99851 8.64849C9.06441 8.58258 9.10144 8.49319 9.10144 8.39999C9.10144 8.30678 9.06441 8.2174 8.99851 8.15149C8.9326 8.08558 8.84321 8.04856 8.75001 8.04856C8.6568 8.04856 8.56741 8.08558 8.50151 8.15149L7.80151 8.85149C7.7356 8.91739 7.69858 9.00678 7.69858 9.09999C7.69858 9.19319 7.7356 9.28258 7.80151 9.34849C7.86741 9.41439 7.9568 9.45142 8.05001 9.45142C8.14321 9.45142 8.2326 9.41439 8.29851 9.34849ZM6.65001 7.69999V8.74999C6.65001 8.84282 6.68688 8.93184 6.75252 8.99748C6.81816 9.06311 6.90718 9.09999 7.00001 9.09999C7.09283 9.09999 7.18186 9.06311 7.2475 8.99748C7.31313 8.93184 7.35001 8.84282 7.35001 8.74999V7.69999C7.35001 7.60716 7.31313 7.51814 7.2475 7.4525C7.18186 7.38687 7.09283 7.34999 7.00001 7.34999C6.90718 7.34999 6.81816 7.38687 6.75252 7.4525C6.68688 7.51814 6.65001 7.60716 6.65001 7.69999ZM2.10001 3.85C1.7539 3.85 1.41555 3.95263 1.12777 4.14492C0.839982 4.33721 0.615681 4.61053 0.483227 4.9303C0.350774 5.25007 0.316118 5.60193 0.383642 5.9414C0.451166 6.28087 0.617838 6.59269 0.862579 6.83743C1.10732 7.08217 1.41914 7.24884 1.75861 7.31636C2.09807 7.38389 2.44994 7.34923 2.76971 7.21678C3.08948 7.08433 3.36279 6.86003 3.55508 6.57224C3.74738 6.28445 3.85001 5.94611 3.85001 5.59999C3.85001 5.13586 3.66564 4.69075 3.33745 4.36256C3.00926 4.03437 2.56414 3.85 2.10001 3.85ZM11.9 3.85C11.5539 3.85 11.2155 3.95263 10.9278 4.14492C10.64 4.33721 10.4157 4.61053 10.2832 4.9303C10.1508 5.25007 10.1161 5.60193 10.1836 5.9414C10.2512 6.28087 10.4178 6.59269 10.6626 6.83743C10.9073 7.08217 11.2191 7.24884 11.5586 7.31636C11.8981 7.38389 12.2499 7.34923 12.5697 7.21678C12.8895 7.08433 13.1628 6.86003 13.3551 6.57224C13.5474 6.28445 13.65 5.94611 13.65 5.59999C13.65 5.13586 13.4656 4.69075 13.1374 4.36256C12.8092 4.03437 12.3641 3.85 11.9 3.85ZM7.00001 0C6.377 0 5.76798 0.184744 5.24996 0.53087C4.73195 0.876996 4.32821 1.36896 4.08979 1.94454C3.85138 2.52013 3.789 3.15349 3.91054 3.76453C4.03208 4.37557 4.33209 4.93684 4.77262 5.37738C5.21316 5.81791 5.77444 6.11792 6.38547 6.23947C6.99651 6.36101 7.62987 6.29863 8.20546 6.06021C8.78105 5.8218 9.27301 5.41805 9.61913 4.90004C9.96526 4.38203 10.15 3.77301 10.15 3.15C10.15 2.31456 9.81813 1.51335 9.22739 0.922612C8.63665 0.331874 7.83544 0 7.00001 0ZM6.65001 1.7675C6.45237 1.80784 6.27474 1.91523 6.14718 2.07149C6.01962 2.22775 5.94997 2.42328 5.95001 2.625C5.95001 2.85706 6.0422 3.07962 6.20629 3.24371C6.37039 3.40781 6.59294 3.5 6.82501 3.5H7.17501C7.22142 3.5 7.26593 3.51843 7.29875 3.55125C7.33157 3.58407 7.35001 3.62858 7.35001 3.675C7.35001 3.72141 7.33157 3.76592 7.29875 3.79874C7.26593 3.83156 7.22142 3.85 7.17501 3.85H6.30001C6.20718 3.85 6.11816 3.88687 6.05252 3.95251C5.98688 4.01815 5.95001 4.10717 5.95001 4.19999C5.95001 4.29282 5.98688 4.38184 6.05252 4.44748C6.11816 4.51312 6.20718 4.54999 6.30001 4.54999H6.65001V4.89999C6.65001 4.99282 6.68688 5.08184 6.75252 5.14748C6.81816 5.21312 6.90718 5.24999 7.00001 5.24999C7.09283 5.24999 7.18186 5.21312 7.2475 5.14748C7.31313 5.08184 7.35001 4.99282 7.35001 4.89999V4.54999C7.58207 4.52679 7.79541 4.41234 7.9431 4.23184C8.09078 4.05134 8.16071 3.81956 8.13751 3.5875C8.1143 3.35543 7.99986 3.14209 7.81935 2.99441C7.63885 2.84672 7.40707 2.77679 7.17501 2.8H6.82501C6.7786 2.8 6.73408 2.78156 6.70126 2.74874C6.66845 2.71592 6.65001 2.67141 6.65001 2.625C6.65001 2.57858 6.66845 2.53407 6.70126 2.50125C6.73408 2.46843 6.7786 2.45 6.82501 2.45H7.70001C7.79283 2.45 7.88186 2.41312 7.94749 2.34748C8.01313 2.28185 8.05001 2.19282 8.05001 2.1C8.05001 2.00717 8.01313 1.91815 7.94749 1.85251C7.88186 1.78687 7.79283 1.75 7.70001 1.75H7.35001V1.4C7.35001 1.30717 7.31313 1.21815 7.2475 1.15251C7.18186 1.08687 7.09283 1.05 7.00001 1.05C6.90718 1.05 6.81816 1.08687 6.75252 1.15251C6.68688 1.21815 6.65001 1.30717 6.65001 1.4V1.7675Z" fill="#2B336A"/>
</g>
<defs>
<clipPath id="clip0_203_5632">
<rect width="14" height="14" fill="white"/>
</clipPath>
</defs>
</svg>
