<svg width="14" height="14" viewBox="0 0 14 14" fill="none" xmlns="http://www.w3.org/2000/svg">
<path fill-rule="evenodd" clip-rule="evenodd" d="M13.5116 13.0233H0.488372C0.358848 13.0233 0.234628 13.0747 0.143041 13.1663C0.0514534 13.2579 0 13.3821 0 13.5116C0 13.6412 0.0514534 13.7654 0.143041 13.857C0.234628 13.9486 0.358848 14 0.488372 14H13.5116C13.6412 14 13.7654 13.9486 13.857 13.857C13.9485 13.7654 14 13.6412 14 13.5116C14 13.3821 13.9485 13.2579 13.857 13.1663C13.7654 13.0747 13.6412 13.0233 13.5116 13.0233Z" fill="white"/>
<path fill-rule="evenodd" clip-rule="evenodd" d="M13.5116 13.0233H0.488372C0.358848 13.0233 0.234628 13.0747 0.143041 13.1663C0.0514534 13.2579 0 13.3821 0 13.5116C0 13.6412 0.0514534 13.7654 0.143041 13.857C0.234628 13.9486 0.358848 14 0.488372 14H13.5116C13.6412 14 13.7654 13.9486 13.857 13.857C13.9485 13.7654 14 13.6412 14 13.5116C14 13.3821 13.9485 13.2579 13.857 13.1663C13.7654 13.0747 13.6412 13.0233 13.5116 13.0233Z" fill="#2B336A"/>
<path fill-rule="evenodd" clip-rule="evenodd" d="M3.4186 14C3.28908 14 3.16486 13.9486 3.07327 13.857C2.98169 13.7654 2.93023 13.6412 2.93023 13.5116V8.62791C2.93023 8.49838 2.98169 8.37416 3.07327 8.28258C3.16486 8.19099 3.28908 8.13954 3.4186 8.13954H6.67442C6.80394 8.13954 6.92816 8.19099 7.01975 8.28258C7.11134 8.37416 7.16279 8.49838 7.16279 8.62791V13.5116C7.16279 13.6412 7.11134 13.7654 7.01975 13.857C6.92816 13.9486 6.80394 14 6.67442 14H8.30233C8.43185 14 8.55607 13.9486 8.64766 13.857C8.73925 13.7654 8.7907 13.6412 8.7907 13.5116V0.488372C8.7907 0.358848 8.73925 0.234628 8.64766 0.143041C8.55607 0.0514534 8.43185 0 8.30233 0H1.7907C1.66117 0 1.53695 0.0514534 1.44537 0.143041C1.35378 0.234628 1.30233 0.358848 1.30233 0.488372V13.5116C1.30233 13.7812 1.52112 14 1.7907 14H3.4186ZM6.18605 9.11628V13.0233H3.90698V9.11628H6.18605ZM4.23256 6.67442V6.02326C4.23256 5.89373 4.18111 5.76951 4.08952 5.67793C3.99793 5.58634 3.87371 5.53488 3.74419 5.53488C3.61466 5.53488 3.49044 5.58634 3.39886 5.67793C3.30727 5.76951 3.25581 5.89373 3.25581 6.02326V6.67442C3.25581 6.80394 3.30727 6.92816 3.39886 7.01975C3.49044 7.11134 3.61466 7.16279 3.74419 7.16279C3.87371 7.16279 3.99793 7.11134 4.08952 7.01975C4.18111 6.92816 4.23256 6.80394 4.23256 6.67442ZM6.83721 6.67442V6.02326C6.83721 5.89373 6.78576 5.76951 6.69417 5.67793C6.60258 5.58634 6.47836 5.53488 6.34884 5.53488C6.21931 5.53488 6.09509 5.58634 6.00351 5.67793C5.91192 5.76951 5.86047 5.89373 5.86047 6.02326V6.67442C5.86047 6.80394 5.91192 6.92816 6.00351 7.01975C6.09509 7.11134 6.21931 7.16279 6.34884 7.16279C6.47836 7.16279 6.60258 7.11134 6.69417 7.01975C6.78576 6.92816 6.83721 6.80394 6.83721 6.67442ZM6.83721 3.41861V2.76744C6.83721 2.63792 6.78576 2.5137 6.69417 2.42211C6.60258 2.33052 6.47836 2.27907 6.34884 2.27907C6.21931 2.27907 6.09509 2.33052 6.00351 2.42211C5.91192 2.5137 5.86047 2.63792 5.86047 2.76744V3.41861C5.86047 3.54813 5.91192 3.67235 6.00351 3.76394C6.09509 3.85552 6.21931 3.90698 6.34884 3.90698C6.47836 3.90698 6.60258 3.85552 6.69417 3.76394C6.78576 3.67235 6.83721 3.54813 6.83721 3.41861ZM4.23256 3.41861V2.76744C4.23256 2.63792 4.18111 2.5137 4.08952 2.42211C3.99793 2.33052 3.87371 2.27907 3.74419 2.27907C3.61466 2.27907 3.49044 2.33052 3.39886 2.42211C3.30727 2.5137 3.25581 2.63792 3.25581 2.76744V3.41861C3.25581 3.54813 3.30727 3.67235 3.39886 3.76394C3.49044 3.85552 3.61466 3.90698 3.74419 3.90698C3.87371 3.90698 3.99793 3.85552 4.08952 3.76394C4.18111 3.67235 4.23256 3.54813 4.23256 3.41861ZM9.44186 2.60465H12.2093C12.3388 2.60465 12.463 2.6561 12.5546 2.74769C12.6462 2.83928 12.6977 2.9635 12.6977 3.09302V13.5116C12.6977 13.6412 12.6462 13.7654 12.5546 13.857C12.463 13.9486 12.3388 14 12.2093 14H9.33247C9.40279 13.8522 9.44186 13.6861 9.44186 13.5116V2.60465ZM10.4186 8.62791V9.27907C10.4186 9.4086 10.4701 9.53282 10.5616 9.6244C10.6532 9.71599 10.7775 9.76744 10.907 9.76744C11.0365 9.76744 11.1607 9.71599 11.2523 9.6244C11.3439 9.53282 11.3953 9.4086 11.3953 9.27907V8.62791C11.3953 8.49838 11.3439 8.37416 11.2523 8.28258C11.1607 8.19099 11.0365 8.13954 10.907 8.13954C10.7775 8.13954 10.6532 8.19099 10.5616 8.28258C10.4701 8.37416 10.4186 8.49838 10.4186 8.62791ZM11.3953 6.02326V5.37209C11.3953 5.24257 11.3439 5.11835 11.2523 5.02676C11.1607 4.93518 11.0365 4.88372 10.907 4.88372C10.7775 4.88372 10.6532 4.93518 10.5616 5.02676C10.4701 5.11835 10.4186 5.24257 10.4186 5.37209V6.02326C10.4186 6.15278 10.4701 6.277 10.5616 6.36859C10.6532 6.46018 10.7775 6.51163 10.907 6.51163C11.0365 6.51163 11.1607 6.46018 11.2523 6.36859C11.3439 6.277 11.3953 6.15278 11.3953 6.02326Z" fill="white"/>
<path fill-rule="evenodd" clip-rule="evenodd" d="M3.4186 14C3.28908 14 3.16486 13.9486 3.07327 13.857C2.98169 13.7654 2.93023 13.6412 2.93023 13.5116V8.62791C2.93023 8.49838 2.98169 8.37416 3.07327 8.28258C3.16486 8.19099 3.28908 8.13954 3.4186 8.13954H6.67442C6.80394 8.13954 6.92816 8.19099 7.01975 8.28258C7.11134 8.37416 7.16279 8.49838 7.16279 8.62791V13.5116C7.16279 13.6412 7.11134 13.7654 7.01975 13.857C6.92816 13.9486 6.80394 14 6.67442 14H8.30233C8.43185 14 8.55607 13.9486 8.64766 13.857C8.73925 13.7654 8.7907 13.6412 8.7907 13.5116V0.488372C8.7907 0.358848 8.73925 0.234628 8.64766 0.143041C8.55607 0.0514534 8.43185 0 8.30233 0H1.7907C1.66117 0 1.53695 0.0514534 1.44537 0.143041C1.35378 0.234628 1.30233 0.358848 1.30233 0.488372V13.5116C1.30233 13.7812 1.52112 14 1.7907 14H3.4186ZM6.18605 9.11628V13.0233H3.90698V9.11628H6.18605ZM4.23256 6.67442V6.02326C4.23256 5.89373 4.18111 5.76951 4.08952 5.67793C3.99793 5.58634 3.87371 5.53488 3.74419 5.53488C3.61466 5.53488 3.49044 5.58634 3.39886 5.67793C3.30727 5.76951 3.25581 5.89373 3.25581 6.02326V6.67442C3.25581 6.80394 3.30727 6.92816 3.39886 7.01975C3.49044 7.11134 3.61466 7.16279 3.74419 7.16279C3.87371 7.16279 3.99793 7.11134 4.08952 7.01975C4.18111 6.92816 4.23256 6.80394 4.23256 6.67442ZM6.83721 6.67442V6.02326C6.83721 5.89373 6.78576 5.76951 6.69417 5.67793C6.60258 5.58634 6.47836 5.53488 6.34884 5.53488C6.21931 5.53488 6.09509 5.58634 6.00351 5.67793C5.91192 5.76951 5.86047 5.89373 5.86047 6.02326V6.67442C5.86047 6.80394 5.91192 6.92816 6.00351 7.01975C6.09509 7.11134 6.21931 7.16279 6.34884 7.16279C6.47836 7.16279 6.60258 7.11134 6.69417 7.01975C6.78576 6.92816 6.83721 6.80394 6.83721 6.67442ZM6.83721 3.41861V2.76744C6.83721 2.63792 6.78576 2.5137 6.69417 2.42211C6.60258 2.33052 6.47836 2.27907 6.34884 2.27907C6.21931 2.27907 6.09509 2.33052 6.00351 2.42211C5.91192 2.5137 5.86047 2.63792 5.86047 2.76744V3.41861C5.86047 3.54813 5.91192 3.67235 6.00351 3.76394C6.09509 3.85552 6.21931 3.90698 6.34884 3.90698C6.47836 3.90698 6.60258 3.85552 6.69417 3.76394C6.78576 3.67235 6.83721 3.54813 6.83721 3.41861ZM4.23256 3.41861V2.76744C4.23256 2.63792 4.18111 2.5137 4.08952 2.42211C3.99793 2.33052 3.87371 2.27907 3.74419 2.27907C3.61466 2.27907 3.49044 2.33052 3.39886 2.42211C3.30727 2.5137 3.25581 2.63792 3.25581 2.76744V3.41861C3.25581 3.54813 3.30727 3.67235 3.39886 3.76394C3.49044 3.85552 3.61466 3.90698 3.74419 3.90698C3.87371 3.90698 3.99793 3.85552 4.08952 3.76394C4.18111 3.67235 4.23256 3.54813 4.23256 3.41861ZM9.44186 2.60465H12.2093C12.3388 2.60465 12.463 2.6561 12.5546 2.74769C12.6462 2.83928 12.6977 2.9635 12.6977 3.09302V13.5116C12.6977 13.6412 12.6462 13.7654 12.5546 13.857C12.463 13.9486 12.3388 14 12.2093 14H9.33247C9.40279 13.8522 9.44186 13.6861 9.44186 13.5116V2.60465ZM10.4186 8.62791V9.27907C10.4186 9.4086 10.4701 9.53282 10.5616 9.6244C10.6532 9.71599 10.7775 9.76744 10.907 9.76744C11.0365 9.76744 11.1607 9.71599 11.2523 9.6244C11.3439 9.53282 11.3953 9.4086 11.3953 9.27907V8.62791C11.3953 8.49838 11.3439 8.37416 11.2523 8.28258C11.1607 8.19099 11.0365 8.13954 10.907 8.13954C10.7775 8.13954 10.6532 8.19099 10.5616 8.28258C10.4701 8.37416 10.4186 8.49838 10.4186 8.62791ZM11.3953 6.02326V5.37209C11.3953 5.24257 11.3439 5.11835 11.2523 5.02676C11.1607 4.93518 11.0365 4.88372 10.907 4.88372C10.7775 4.88372 10.6532 4.93518 10.5616 5.02676C10.4701 5.11835 10.4186 5.24257 10.4186 5.37209V6.02326C10.4186 6.15278 10.4701 6.277 10.5616 6.36859C10.6532 6.46018 10.7775 6.51163 10.907 6.51163C11.0365 6.51163 11.1607 6.46018 11.2523 6.36859C11.3439 6.277 11.3953 6.15278 11.3953 6.02326Z" fill="#2B336A"/>
</svg>
