<svg width="20" height="20" viewBox="0 0 20 20" fill="none" xmlns="http://www.w3.org/2000/svg">
<path fill-rule="evenodd" clip-rule="evenodd" d="M19.3023 18.6047H0.697674C0.51264 18.6047 0.335183 18.6782 0.204344 18.809C0.0735048 18.9398 0 19.1173 0 19.3023C0 19.4874 0.0735048 19.6648 0.204344 19.7957C0.335183 19.9265 0.51264 20 0.697674 20H19.3023C19.4874 20 19.6648 19.9265 19.7957 19.7957C19.9265 19.6648 20 19.4874 20 19.3023C20 19.1173 19.9265 18.9398 19.7957 18.809C19.6648 18.6782 19.4874 18.6047 19.3023 18.6047Z" fill="white"/>
<path fill-rule="evenodd" clip-rule="evenodd" d="M19.3023 18.6047H0.697674C0.51264 18.6047 0.335183 18.6782 0.204344 18.809C0.0735048 18.9398 0 19.1173 0 19.3023C0 19.4874 0.0735048 19.6648 0.204344 19.7957C0.335183 19.9265 0.51264 20 0.697674 20H19.3023C19.4874 20 19.6648 19.9265 19.7957 19.7957C19.9265 19.6648 20 19.4874 20 19.3023C20 19.1173 19.9265 18.9398 19.7957 18.809C19.6648 18.6782 19.4874 18.6047 19.3023 18.6047Z" fill="#2B336A"/>
<path fill-rule="evenodd" clip-rule="evenodd" d="M4.88372 20C4.69869 20 4.52123 19.9265 4.39039 19.7957C4.25955 19.6648 4.18605 19.4874 4.18605 19.3023V12.3256C4.18605 12.1405 4.25955 11.9631 4.39039 11.8323C4.52123 11.7014 4.69869 11.6279 4.88372 11.6279H9.53488C9.71992 11.6279 9.89737 11.7014 10.0282 11.8323C10.1591 11.9631 10.2326 12.1405 10.2326 12.3256V19.3023C10.2326 19.4874 10.1591 19.6648 10.0282 19.7957C9.89737 19.9265 9.71992 20 9.53488 20H11.8605C12.0455 20 12.223 19.9265 12.3538 19.7957C12.4846 19.6648 12.5581 19.4874 12.5581 19.3023V0.697675C12.5581 0.51264 12.4846 0.335184 12.3538 0.204344C12.223 0.0735048 12.0455 0 11.8605 0H2.55814C2.3731 0 2.19565 0.0735048 2.06481 0.204344C1.93397 0.335184 1.86047 0.51264 1.86047 0.697675V19.3023C1.86047 19.6874 2.17302 20 2.55814 20H4.88372ZM8.83721 13.0233V18.6047H5.5814V13.0233H8.83721ZM6.04651 9.53489V8.60465C6.04651 8.41962 5.97301 8.24216 5.84217 8.11132C5.71133 7.98048 5.53387 7.90698 5.34884 7.90698C5.1638 7.90698 4.98635 7.98048 4.85551 8.11132C4.72467 8.24216 4.65116 8.41962 4.65116 8.60465V9.53489C4.65116 9.71992 4.72467 9.89738 4.85551 10.0282C4.98635 10.1591 5.1638 10.2326 5.34884 10.2326C5.53387 10.2326 5.71133 10.1591 5.84217 10.0282C5.97301 9.89738 6.04651 9.71992 6.04651 9.53489ZM9.76744 9.53489V8.60465C9.76744 8.41962 9.69394 8.24216 9.5631 8.11132C9.43226 7.98048 9.2548 7.90698 9.06977 7.90698C8.88473 7.90698 8.70728 7.98048 8.57644 8.11132C8.4456 8.24216 8.37209 8.41962 8.37209 8.60465V9.53489C8.37209 9.71992 8.4456 9.89738 8.57644 10.0282C8.70728 10.1591 8.88473 10.2326 9.06977 10.2326C9.2548 10.2326 9.43226 10.1591 9.5631 10.0282C9.69394 9.89738 9.76744 9.71992 9.76744 9.53489ZM9.76744 4.88372V3.95349C9.76744 3.76845 9.69394 3.591 9.5631 3.46016C9.43226 3.32932 9.2548 3.25581 9.06977 3.25581C8.88473 3.25581 8.70728 3.32932 8.57644 3.46016C8.4456 3.591 8.37209 3.76845 8.37209 3.95349V4.88372C8.37209 5.06876 8.4456 5.24621 8.57644 5.37705C8.70728 5.50789 8.88473 5.5814 9.06977 5.5814C9.2548 5.5814 9.43226 5.50789 9.5631 5.37705C9.69394 5.24621 9.76744 5.06876 9.76744 4.88372ZM6.04651 4.88372V3.95349C6.04651 3.76845 5.97301 3.591 5.84217 3.46016C5.71133 3.32932 5.53387 3.25581 5.34884 3.25581C5.1638 3.25581 4.98635 3.32932 4.85551 3.46016C4.72467 3.591 4.65116 3.76845 4.65116 3.95349V4.88372C4.65116 5.06876 4.72467 5.24621 4.85551 5.37705C4.98635 5.50789 5.1638 5.5814 5.34884 5.5814C5.53387 5.5814 5.71133 5.50789 5.84217 5.37705C5.97301 5.24621 6.04651 5.06876 6.04651 4.88372ZM13.4884 3.72093H17.4419C17.6269 3.72093 17.8044 3.79444 17.9352 3.92527C18.066 4.05611 18.1395 4.23357 18.1395 4.41861V19.3023C18.1395 19.4874 18.066 19.6648 17.9352 19.7957C17.8044 19.9265 17.6269 20 17.4419 20H13.3321C13.4326 19.7888 13.4884 19.5516 13.4884 19.3023V3.72093ZM14.8837 12.3256V13.2558C14.8837 13.4409 14.9572 13.6183 15.0881 13.7491C15.2189 13.88 15.3964 13.9535 15.5814 13.9535C15.7664 13.9535 15.9439 13.88 16.0747 13.7491C16.2056 13.6183 16.2791 13.4409 16.2791 13.2558V12.3256C16.2791 12.1405 16.2056 11.9631 16.0747 11.8323C15.9439 11.7014 15.7664 11.6279 15.5814 11.6279C15.3964 11.6279 15.2189 11.7014 15.0881 11.8323C14.9572 11.9631 14.8837 12.1405 14.8837 12.3256ZM16.2791 8.60465V7.67442C16.2791 7.48938 16.2056 7.31193 16.0747 7.18109C15.9439 7.05025 15.7664 6.97675 15.5814 6.97675C15.3964 6.97675 15.2189 7.05025 15.0881 7.18109C14.9572 7.31193 14.8837 7.48938 14.8837 7.67442V8.60465C14.8837 8.78969 14.9572 8.96714 15.0881 9.09798C15.2189 9.22882 15.3964 9.30233 15.5814 9.30233C15.7664 9.30233 15.9439 9.22882 16.0747 9.09798C16.2056 8.96714 16.2791 8.78969 16.2791 8.60465Z" fill="white"/>
<path fill-rule="evenodd" clip-rule="evenodd" d="M4.88372 20C4.69869 20 4.52123 19.9265 4.39039 19.7957C4.25955 19.6648 4.18605 19.4874 4.18605 19.3023V12.3256C4.18605 12.1405 4.25955 11.9631 4.39039 11.8323C4.52123 11.7014 4.69869 11.6279 4.88372 11.6279H9.53488C9.71992 11.6279 9.89737 11.7014 10.0282 11.8323C10.1591 11.9631 10.2326 12.1405 10.2326 12.3256V19.3023C10.2326 19.4874 10.1591 19.6648 10.0282 19.7957C9.89737 19.9265 9.71992 20 9.53488 20H11.8605C12.0455 20 12.223 19.9265 12.3538 19.7957C12.4846 19.6648 12.5581 19.4874 12.5581 19.3023V0.697675C12.5581 0.51264 12.4846 0.335184 12.3538 0.204344C12.223 0.0735048 12.0455 0 11.8605 0H2.55814C2.3731 0 2.19565 0.0735048 2.06481 0.204344C1.93397 0.335184 1.86047 0.51264 1.86047 0.697675V19.3023C1.86047 19.6874 2.17302 20 2.55814 20H4.88372ZM8.83721 13.0233V18.6047H5.5814V13.0233H8.83721ZM6.04651 9.53489V8.60465C6.04651 8.41962 5.97301 8.24216 5.84217 8.11132C5.71133 7.98048 5.53387 7.90698 5.34884 7.90698C5.1638 7.90698 4.98635 7.98048 4.85551 8.11132C4.72467 8.24216 4.65116 8.41962 4.65116 8.60465V9.53489C4.65116 9.71992 4.72467 9.89738 4.85551 10.0282C4.98635 10.1591 5.1638 10.2326 5.34884 10.2326C5.53387 10.2326 5.71133 10.1591 5.84217 10.0282C5.97301 9.89738 6.04651 9.71992 6.04651 9.53489ZM9.76744 9.53489V8.60465C9.76744 8.41962 9.69394 8.24216 9.5631 8.11132C9.43226 7.98048 9.2548 7.90698 9.06977 7.90698C8.88473 7.90698 8.70728 7.98048 8.57644 8.11132C8.4456 8.24216 8.37209 8.41962 8.37209 8.60465V9.53489C8.37209 9.71992 8.4456 9.89738 8.57644 10.0282C8.70728 10.1591 8.88473 10.2326 9.06977 10.2326C9.2548 10.2326 9.43226 10.1591 9.5631 10.0282C9.69394 9.89738 9.76744 9.71992 9.76744 9.53489ZM9.76744 4.88372V3.95349C9.76744 3.76845 9.69394 3.591 9.5631 3.46016C9.43226 3.32932 9.2548 3.25581 9.06977 3.25581C8.88473 3.25581 8.70728 3.32932 8.57644 3.46016C8.4456 3.591 8.37209 3.76845 8.37209 3.95349V4.88372C8.37209 5.06876 8.4456 5.24621 8.57644 5.37705C8.70728 5.50789 8.88473 5.5814 9.06977 5.5814C9.2548 5.5814 9.43226 5.50789 9.5631 5.37705C9.69394 5.24621 9.76744 5.06876 9.76744 4.88372ZM6.04651 4.88372V3.95349C6.04651 3.76845 5.97301 3.591 5.84217 3.46016C5.71133 3.32932 5.53387 3.25581 5.34884 3.25581C5.1638 3.25581 4.98635 3.32932 4.85551 3.46016C4.72467 3.591 4.65116 3.76845 4.65116 3.95349V4.88372C4.65116 5.06876 4.72467 5.24621 4.85551 5.37705C4.98635 5.50789 5.1638 5.5814 5.34884 5.5814C5.53387 5.5814 5.71133 5.50789 5.84217 5.37705C5.97301 5.24621 6.04651 5.06876 6.04651 4.88372ZM13.4884 3.72093H17.4419C17.6269 3.72093 17.8044 3.79444 17.9352 3.92527C18.066 4.05611 18.1395 4.23357 18.1395 4.41861V19.3023C18.1395 19.4874 18.066 19.6648 17.9352 19.7957C17.8044 19.9265 17.6269 20 17.4419 20H13.3321C13.4326 19.7888 13.4884 19.5516 13.4884 19.3023V3.72093ZM14.8837 12.3256V13.2558C14.8837 13.4409 14.9572 13.6183 15.0881 13.7491C15.2189 13.88 15.3964 13.9535 15.5814 13.9535C15.7664 13.9535 15.9439 13.88 16.0747 13.7491C16.2056 13.6183 16.2791 13.4409 16.2791 13.2558V12.3256C16.2791 12.1405 16.2056 11.9631 16.0747 11.8323C15.9439 11.7014 15.7664 11.6279 15.5814 11.6279C15.3964 11.6279 15.2189 11.7014 15.0881 11.8323C14.9572 11.9631 14.8837 12.1405 14.8837 12.3256ZM16.2791 8.60465V7.67442C16.2791 7.48938 16.2056 7.31193 16.0747 7.18109C15.9439 7.05025 15.7664 6.97675 15.5814 6.97675C15.3964 6.97675 15.2189 7.05025 15.0881 7.18109C14.9572 7.31193 14.8837 7.48938 14.8837 7.67442V8.60465C14.8837 8.78969 14.9572 8.96714 15.0881 9.09798C15.2189 9.22882 15.3964 9.30233 15.5814 9.30233C15.7664 9.30233 15.9439 9.22882 16.0747 9.09798C16.2056 8.96714 16.2791 8.78969 16.2791 8.60465Z" fill="#2B336A"/>
</svg>
