<svg width="14" height="14" viewBox="0 0 14 14" fill="none" xmlns="http://www.w3.org/2000/svg">
<g clip-path="url(#clip0_409_3368)">
<path d="M7.93546 9.86363C7.79233 9.87698 7.64864 9.84467 7.525 9.77134C7.4804 9.72556 7.44666 9.67033 7.42629 9.60975C7.40591 9.54917 7.39942 9.48478 7.40729 9.42134C7.41062 9.31437 7.42339 9.2079 7.44546 9.10317C7.46681 8.98302 7.4944 8.86408 7.52817 8.7468L7.90363 7.45497C7.94235 7.32746 7.96794 7.19632 7.98 7.0636C7.98 6.92043 7.99909 6.82177 7.99909 6.76452C8.00303 6.63854 7.97846 6.51331 7.92722 6.39816C7.87598 6.28301 7.79939 6.18092 7.70317 6.09952C7.46339 5.91544 7.1648 5.82496 6.86317 5.84497C6.64702 5.84822 6.43255 5.88361 6.2268 5.94997C6.00195 6.01997 5.76543 6.10375 5.51726 6.20134L5.40909 6.62134C5.48226 6.59589 5.57137 6.56726 5.67317 6.53543C5.77029 6.50666 5.87097 6.49166 5.97226 6.49089C6.11434 6.47549 6.25733 6.51039 6.37634 6.58952C6.41635 6.63725 6.44627 6.69259 6.46432 6.75219C6.48236 6.8118 6.48815 6.87444 6.48134 6.93634C6.48099 7.04334 6.46926 7.15 6.44634 7.25452C6.42406 7.36589 6.39543 7.4836 6.36043 7.60769L5.9818 8.90586C5.95129 9.02653 5.92687 9.14865 5.90863 9.27177C5.89376 9.37718 5.88631 9.4835 5.88634 9.58995C5.88558 9.71673 5.91385 9.84201 5.96901 9.95618C6.02416 10.0703 6.10472 10.1704 6.20452 10.2486C6.44799 10.4355 6.75083 10.5282 7.05723 10.5095C7.27298 10.5139 7.48799 10.4827 7.6936 10.4172C7.87391 10.3557 8.11467 10.2677 8.41589 10.1531L8.51772 9.7522C8.43612 9.78605 8.35209 9.8137 8.26635 9.83492C8.1579 9.85967 8.04655 9.86934 7.93546 9.86363ZM8.33317 3.73863C8.16001 3.5796 7.93184 3.49404 7.6968 3.5C7.46188 3.4947 7.23395 3.58017 7.06043 3.73863C6.74237 4.01289 6.70685 4.49307 6.98113 4.81116C7.00557 4.83951 7.03208 4.86602 7.06043 4.89046C7.42279 5.21456 7.97081 5.21456 8.33315 4.89046C8.65121 4.61349 8.68454 4.13115 8.40757 3.81309C8.38453 3.78658 8.35967 3.7617 8.33317 3.73863Z" fill="white"/>
<path d="M7.93546 9.86363C7.79233 9.87698 7.64864 9.84467 7.525 9.77134C7.4804 9.72556 7.44666 9.67033 7.42629 9.60975C7.40591 9.54917 7.39942 9.48478 7.40729 9.42134C7.41062 9.31437 7.42339 9.2079 7.44546 9.10317C7.46681 8.98302 7.4944 8.86408 7.52817 8.7468L7.90363 7.45497C7.94235 7.32746 7.96794 7.19632 7.98 7.0636C7.98 6.92043 7.99909 6.82177 7.99909 6.76452C8.00303 6.63854 7.97846 6.51331 7.92722 6.39816C7.87598 6.28301 7.79939 6.18092 7.70317 6.09952C7.46339 5.91544 7.1648 5.82496 6.86317 5.84497C6.64702 5.84822 6.43255 5.88361 6.2268 5.94997C6.00195 6.01997 5.76543 6.10375 5.51726 6.20134L5.40909 6.62134C5.48226 6.59589 5.57137 6.56726 5.67317 6.53543C5.77029 6.50666 5.87097 6.49166 5.97226 6.49089C6.11434 6.47549 6.25733 6.51039 6.37634 6.58952C6.41635 6.63725 6.44627 6.69259 6.46432 6.75219C6.48236 6.8118 6.48815 6.87444 6.48134 6.93634C6.48099 7.04334 6.46926 7.15 6.44634 7.25452C6.42406 7.36589 6.39543 7.4836 6.36043 7.60769L5.9818 8.90586C5.95129 9.02653 5.92687 9.14865 5.90863 9.27177C5.89376 9.37718 5.88631 9.4835 5.88634 9.58995C5.88558 9.71673 5.91385 9.84201 5.96901 9.95618C6.02416 10.0703 6.10472 10.1704 6.20452 10.2486C6.44799 10.4355 6.75083 10.5282 7.05723 10.5095C7.27298 10.5139 7.48799 10.4827 7.6936 10.4172C7.87391 10.3557 8.11467 10.2677 8.41589 10.1531L8.51772 9.7522C8.43612 9.78605 8.35209 9.8137 8.26635 9.83492C8.1579 9.85967 8.04655 9.86934 7.93546 9.86363ZM8.33317 3.73863C8.16001 3.5796 7.93184 3.49404 7.6968 3.5C7.46188 3.4947 7.23395 3.58017 7.06043 3.73863C6.74237 4.01289 6.70685 4.49307 6.98113 4.81116C7.00557 4.83951 7.03208 4.86602 7.06043 4.89046C7.42279 5.21456 7.97081 5.21456 8.33315 4.89046C8.65121 4.61349 8.68454 4.13115 8.40757 3.81309C8.38453 3.78658 8.35967 3.7617 8.33317 3.73863Z" fill="#2B336A"/>
<path d="M7 0C3.134 0 0 3.134 0 7C0 10.866 3.134 14 7 14C10.866 14 14 10.866 14 7C14 3.134 10.866 0 7 0ZM7 13.3636C3.48545 13.3636 0.636371 10.5145 0.636371 7C0.636371 3.48545 3.48545 0.636371 7 0.636371C10.5145 0.636371 13.3636 3.48545 13.3636 7C13.3636 10.5145 10.5145 13.3636 7 13.3636Z" fill="white"/>
<path d="M7 0C3.134 0 0 3.134 0 7C0 10.866 3.134 14 7 14C10.866 14 14 10.866 14 7C14 3.134 10.866 0 7 0ZM7 13.3636C3.48545 13.3636 0.636371 10.5145 0.636371 7C0.636371 3.48545 3.48545 0.636371 7 0.636371C10.5145 0.636371 13.3636 3.48545 13.3636 7C13.3636 10.5145 10.5145 13.3636 7 13.3636Z" fill="#2B336A"/>
</g>
<defs>
<clipPath id="clip0_409_3368">
<rect width="14" height="14" fill="white"/>
</clipPath>
</defs>
</svg>
