<svg width="24" height="24" viewBox="0 0 24 24" fill="none" xmlns="http://www.w3.org/2000/svg">
<path fill-rule="evenodd" clip-rule="evenodd" d="M14.2756 9.38504V7.42379C14.2756 5.62598 15.695 4.15504 17.52 4.15504C19.3044 4.15504 20.7644 5.62598 20.7644 7.42379V9.38504C20.7644 10.1205 21.3322 10.6925 22.0622 10.6925C22.7517 10.6925 23.36 10.1205 23.36 9.38504V7.42379C23.36 4.1959 20.7239 1.54004 17.52 1.54004C14.2756 1.54004 11.68 4.1959 11.68 7.42379V9.38504H2.59556C1.13556 9.38504 0 10.57 0 12V19.845C0 21.316 1.13556 22.46 2.59556 22.46H15.5733C16.9928 22.46 18.1689 21.316 18.1689 19.845V12C18.1689 10.57 16.9928 9.38504 15.5733 9.38504H14.2756ZM10.753 14.8018C10.753 15.4981 10.2803 16.0832 9.64059 16.249V18.164C9.64059 18.3703 9.47458 18.5375 9.26979 18.5375C9.06501 18.5375 8.899 18.3703 8.899 18.164V16.249C8.25932 16.0831 7.78667 15.4981 7.78667 14.8018C7.78667 13.9766 8.45071 13.3075 9.26984 13.3075C10.089 13.3075 10.753 13.9766 10.753 14.8018Z" fill="white"/>
<path fill-rule="evenodd" clip-rule="evenodd" d="M14.2756 9.38504V7.42379C14.2756 5.62598 15.695 4.15504 17.52 4.15504C19.3044 4.15504 20.7644 5.62598 20.7644 7.42379V9.38504C20.7644 10.1205 21.3322 10.6925 22.0622 10.6925C22.7517 10.6925 23.36 10.1205 23.36 9.38504V7.42379C23.36 4.1959 20.7239 1.54004 17.52 1.54004C14.2756 1.54004 11.68 4.1959 11.68 7.42379V9.38504H2.59556C1.13556 9.38504 0 10.57 0 12V19.845C0 21.316 1.13556 22.46 2.59556 22.46H15.5733C16.9928 22.46 18.1689 21.316 18.1689 19.845V12C18.1689 10.57 16.9928 9.38504 15.5733 9.38504H14.2756ZM10.753 14.8018C10.753 15.4981 10.2803 16.0832 9.64059 16.249V18.164C9.64059 18.3703 9.47458 18.5375 9.26979 18.5375C9.06501 18.5375 8.899 18.3703 8.899 18.164V16.249C8.25932 16.0831 7.78667 15.4981 7.78667 14.8018C7.78667 13.9766 8.45071 13.3075 9.26984 13.3075C10.089 13.3075 10.753 13.9766 10.753 14.8018Z" fill="white"/>
</svg>
