<svg width="24" height="24" viewBox="0 0 24 24" fill="none" xmlns="http://www.w3.org/2000/svg">
<path fill-rule="evenodd" clip-rule="evenodd" d="M5.88214 9.38504V7.42379C5.88214 5.62598 7.31183 4.15504 9.15 4.15504C10.9473 4.15504 12.4179 5.62598 12.4179 7.42379V9.38504H5.88214ZM3.26786 7.42379V9.38504H2.61429C1.14375 9.38504 0 10.57 0 12V19.845C0 21.316 1.14375 22.46 2.61429 22.46H15.6857C17.1154 22.46 18.3 21.316 18.3 19.845V12C18.3 10.57 17.1154 9.38504 15.6857 9.38504H15.0321V7.42379C15.0321 4.1959 12.377 1.54004 9.15 1.54004C5.88214 1.54004 3.26786 4.1959 3.26786 7.42379ZM10.8306 14.8018C10.8306 15.4981 10.3545 16.0832 9.71016 16.249V18.164C9.71016 18.3703 9.54295 18.5375 9.33669 18.5375C9.13043 18.5375 8.96322 18.3703 8.96322 18.164V16.249C8.31892 16.0831 7.84286 15.4981 7.84286 14.8018C7.84286 13.9766 8.51169 13.3075 9.33673 13.3075C10.1618 13.3075 10.8306 13.9766 10.8306 14.8018Z" fill="white"/>
<path fill-rule="evenodd" clip-rule="evenodd" d="M5.88214 9.38504V7.42379C5.88214 5.62598 7.31183 4.15504 9.15 4.15504C10.9473 4.15504 12.4179 5.62598 12.4179 7.42379V9.38504H5.88214ZM3.26786 7.42379V9.38504H2.61429C1.14375 9.38504 0 10.57 0 12V19.845C0 21.316 1.14375 22.46 2.61429 22.46H15.6857C17.1154 22.46 18.3 21.316 18.3 19.845V12C18.3 10.57 17.1154 9.38504 15.6857 9.38504H15.0321V7.42379C15.0321 4.1959 12.377 1.54004 9.15 1.54004C5.88214 1.54004 3.26786 4.1959 3.26786 7.42379ZM10.8306 14.8018C10.8306 15.4981 10.3545 16.0832 9.71016 16.249V18.164C9.71016 18.3703 9.54295 18.5375 9.33669 18.5375C9.13043 18.5375 8.96322 18.3703 8.96322 18.164V16.249C8.31892 16.0831 7.84286 15.4981 7.84286 14.8018C7.84286 13.9766 8.51169 13.3075 9.33673 13.3075C10.1618 13.3075 10.8306 13.9766 10.8306 14.8018Z" fill="white"/>
</svg>
